<?xml version="1.0" standalone="no"?>
<!DOCTYPE svg PUBLIC "-//W3C//DTD SVG 20010904//EN"
 "http://www.w3.org/TR/2001/REC-SVG-20010904/DTD/svg10.dtd">
<svg version="1.0" xmlns="http://www.w3.org/2000/svg"
 width="512.000000pt" height="512.000000pt" viewBox="0 0 512.000000 512.000000"
 preserveAspectRatio="xMidYMid meet">
<metadata>
Created by potrace 1.16, written by Peter Selinger 2001-2019
</metadata>
<g transform="translate(0.000000,512.000000) scale(0.100000,-0.100000)"
fill="#000000" stroke="none">
<path d="M2435 4064 c-323 -36 -614 -161 -870 -376 -50 -41 -119 -110 -154
-152 -101 -120 -91 -84 21 79 l49 70 -71 -75 c-194 -206 -343 -489 -400 -758
-29 -137 -37 -393 -17 -528 62 -398 315 -770 702 -1029 184 -123 375 -204 571
-241 132 -24 372 -15 512 20 119 30 290 95 413 156 222 112 510 355 624 527
23 35 25 46 15 58 -7 8 -15 15 -19 15 -3 0 -31 -37 -61 -82 -130 -198 -392
-410 -630 -510 -226 -96 -533 -133 -762 -93 -193 33 -449 145 -627 272 -112
80 -258 217 -321 301 -28 38 -59 66 -83 77 -48 21 -85 72 -147 200 -104 214
-135 359 -127 600 6 163 22 263 68 405 27 83 150 336 184 375 19 23 16 15 -10
-30 -21 -35 -31 -61 -25 -63 6 -2 12 -2 14 -1 1 2 29 44 61 94 58 87 243 285
268 285 7 0 -23 -32 -65 -71 -43 -38 -87 -84 -99 -102 -12 -18 27 15 87 73
138 132 132 126 111 111 -9 -8 -20 -11 -23 -8 -14 14 185 147 327 218 204 103
400 149 628 149 220 0 402 -40 635 -139 267 -113 489 -287 655 -513 36 -48 67
-86 69 -83 2 2 -22 44 -53 92 -78 119 -260 298 -390 385 -193 128 -427 226
-643 269 -95 18 -335 32 -417 23z"/>
<path d="M2526 3808 c-11 -15 -12 -26 -5 -40 14 -25 56 -23 70 4 10 18 8 24
-11 40 -29 23 -36 23 -54 -4z"/>
<path d="M2607 3733 c-12 -11 -8 -603 3 -603 6 0 10 108 10 305 0 168 -1 305
-3 305 -2 0 -7 -3 -10 -7z"/>
<path d="M2742 3729 c-27 -10 -21 -29 10 -29 37 0 202 -61 291 -108 271 -143
488 -416 563 -711 13 -51 24 -106 24 -122 0 -26 4 -29 30 -29 26 0 30 3 30 29
0 59 -52 229 -99 326 -149 306 -446 561 -738 636 -86 21 -80 21 -111 8z"/>
<path d="M1993 3666 c-63 -30 -158 -93 -158 -105 0 -5 -34 -39 -77 -75 -201
-171 -367 -477 -380 -701 -2 -40 0 -50 14 -53 13 -2 18 7 23 45 29 212 136
434 290 601 81 87 164 154 273 220 47 28 79 53 73 57 -6 3 -55 -16 -108 -44
-53 -28 -98 -51 -102 -51 -12 0 44 34 132 81 97 51 108 66 20 25z"/>
<path d="M2230 3554 c-70 -18 -240 -99 -240 -114 0 -7 3 -10 8 -8 4 2 44 22
89 45 45 22 111 48 147 58 36 10 66 22 66 26 0 11 -3 11 -70 -7z"/>
<path d="M1890 3383 c-100 -88 -169 -174 -221 -275 -16 -31 -25 -59 -20 -62 5
-3 14 8 21 25 37 89 153 237 238 304 48 38 62 55 44 55 -4 0 -32 -21 -62 -47z"/>
<path d="M1911 3303 c-107 -107 -215 -263 -195 -281 4 -4 9 -2 11 5 16 44 135
202 202 266 l81 79 45 -53 45 -53 -52 -46 -52 -47 17 -26 c22 -33 34 -34 59
-2 32 41 56 50 79 29 28 -25 36 -8 10 20 l-23 24 55 37 c72 47 181 85 270 92
40 3 79 10 87 15 10 6 -16 7 -69 3 -96 -7 -208 -41 -290 -87 l-54 -31 -44 49
c-24 27 -51 59 -59 72 -9 12 -21 22 -26 22 -5 0 -49 -39 -97 -87z"/>
<path d="M2960 3307 c0 -3 22 -19 48 -36 57 -36 174 -156 221 -224 78 -115
122 -247 120 -367 -1 -41 -3 -67 -6 -57 -7 26 -17 21 -33 -15 -7 -18 -15 -36
-18 -40 -2 -5 3 -8 12 -8 13 0 16 -11 16 -50 0 -47 -2 -50 -25 -50 -24 0 -25
-3 -25 -60 l0 -60 50 0 c49 0 50 1 50 30 0 29 1 30 50 30 37 0 50 -4 50 -14 0
-8 -4 -18 -10 -21 -14 -9 -12 -25 3 -25 14 0 39 65 29 74 -3 3 -31 6 -63 6
l-57 0 -4 193 c-4 189 -4 193 -36 273 -53 133 -127 237 -238 334 -47 41 -134
97 -134 87z"/>
<path d="M1357 3198 c-49 -87 -93 -200 -117 -299 -22 -91 -26 -164 -10 -154 6
3 10 23 10 44 0 82 76 315 137 419 13 24 23 46 20 49 -3 2 -21 -24 -40 -59z"/>
<path d="M3710 3225 c1 -12 79 -163 80 -154 0 4 -12 33 -26 64 -26 60 -54 107
-54 90z"/>
<path d="M3640 3139 l-25 -20 33 16 c24 12 37 13 46 5 25 -20 66 -127 76 -198
10 -71 5 -136 -10 -127 -5 3 -22 49 -39 103 -17 53 -36 104 -42 112 -9 12 -10
11 -4 -5 17 -53 35 -148 41 -217 7 -78 7 -78 35 -78 l29 0 0 -67 c-1 -67 -1
-68 -18 -44 -40 55 -61 71 -94 71 l-33 0 3 -97 c4 -114 6 -125 26 -117 11 4
16 26 18 82 l3 77 23 -25 c13 -14 28 -34 34 -45 10 -19 10 -19 -8 -4 -39 33
-42 28 -20 -28 21 -55 24 -58 59 -61 l37 -3 0 130 c0 110 2 131 15 131 18 0
18 -2 0 101 -17 99 -53 210 -91 279 -31 56 -53 63 -94 29z"/>
<path d="M2453 3125 c-99 -30 -179 -99 -223 -189 -51 -106 -30 -286 33 -286
21 0 25 7 36 54 26 118 118 207 242 235 38 9 46 7 62 -10 10 -10 27 -19 39
-19 36 0 105 -39 142 -80 51 -57 85 -131 99 -215 6 -41 15 -75 20 -75 5 0 7
39 5 88 -2 68 -9 98 -28 136 -28 54 -99 123 -139 133 -23 6 -20 8 24 18 l50
11 -34 18 c-18 10 -61 23 -95 30 -59 12 -61 14 -64 46 l-3 33 -58 -6 c-79 -7
-141 -36 -206 -98 -53 -50 -105 -135 -105 -172 0 -11 -4 -15 -11 -11 -15 9 -3
97 21 151 39 89 122 166 218 204 54 21 37 24 -25 4z"/>
<path d="M1930 3078 c-18 -23 -42 -61 -55 -83 -29 -48 -75 -185 -74 -217 0
-13 13 16 29 64 34 103 49 133 102 211 46 69 44 89 -2 25z"/>
<path d="M2630 3111 c0 -5 21 -14 48 -20 83 -21 151 -59 212 -117 66 -62 77
-61 30 3 -54 73 -182 143 -262 143 -15 0 -28 -4 -28 -9z"/>
<path d="M1642 2948 c-25 -70 -56 -197 -49 -205 17 -16 35 10 41 59 4 29 17
83 30 120 13 37 21 69 18 72 -13 13 -22 3 -40 -46z"/>
<path d="M2151 2893 c-25 -49 -51 -139 -51 -175 l0 -28 -71 0 c-62 0 -70 -2
-67 -17 2 -11 14 -19 29 -21 26 -3 27 -5 28 -73 3 -181 87 -334 236 -428 163
-103 349 -121 518 -49 48 21 66 46 25 34 -13 -3 -66 -9 -119 -13 -232 -15
-445 94 -560 287 -38 65 -69 159 -69 213 0 25 3 28 27 25 24 -3 29 -9 35 -48
11 -67 71 -179 125 -234 134 -137 324 -205 480 -172 92 19 145 47 214 113 66
63 99 129 105 212 l4 56 -13 -50 c-16 -59 -37 -101 -67 -132 -11 -13 -22 -23
-24 -23 -1 0 13 30 31 68 27 53 35 83 39 147 3 44 1 94 -5 110 -9 29 -9 28
-10 -15 -2 -122 -57 -231 -150 -300 -74 -55 -143 -74 -250 -67 -185 11 -337
117 -417 292 -37 80 -44 200 -16 273 23 61 20 68 -7 15z"/>
<path d="M3843 2899 c4 -14 11 -59 17 -99 10 -73 20 -103 20 -63 0 32 -29 175
-36 182 -4 3 -4 -6 -1 -20z"/>
<path d="M4151 2784 c0 -11 3 -14 6 -6 3 7 2 16 -1 19 -3 4 -6 -2 -5 -13z"/>
<path d="M4161 2680 c-2 -47 -3 -92 -3 -100 1 -8 -2 -31 -7 -50 -5 -19 -15
-73 -21 -119 -24 -178 -97 -371 -212 -564 -39 -65 -68 -120 -66 -123 9 -9 71
70 121 155 137 230 202 484 195 756 -3 116 -4 121 -7 45z"/>
<path d="M2534 2735 c-68 -35 -87 -131 -34 -183 53 -54 125 -54 176 -1 24 25
29 39 29 79 0 42 -5 54 -31 81 -38 37 -94 47 -140 24z m113 -47 c29 -27 30
-67 2 -102 -47 -59 -149 -15 -135 59 12 62 87 86 133 43z"/>
<path d="M1130 2650 c0 -41 21 -57 34 -25 3 10 19 15 45 15 43 0 55 -9 45 -34
-5 -12 -20 -16 -60 -16 l-54 0 0 -60 c0 -53 2 -60 20 -60 15 0 20 7 20 29 0
20 6 31 18 34 16 4 16 5 0 6 -10 0 -18 5 -18 11 0 6 9 6 24 1 28 -11 81 17 91
48 17 53 -31 91 -115 91 l-50 0 0 -40z"/>
<path d="M1465 2680 c3 -5 10 -10 16 -10 5 0 9 5 9 10 0 6 -7 10 -16 10 -8 0
-12 -4 -9 -10z"/>
<path d="M1569 2661 c-16 -16 -29 -37 -29 -45 0 -24 36 -19 64 9 14 14 32 25
41 25 8 0 20 -11 25 -25 13 -35 60 -36 60 -1 0 35 -44 66 -92 66 -30 0 -46 -7
-69 -29z"/>
<path d="M1770 2680 c-31 -19 6 -31 86 -28 66 3 79 6 82 21 3 15 -6 17 -75 17
-43 0 -85 -5 -93 -10z"/>
<path d="M3107 2672 c-13 -14 -17 -39 -17 -105 0 -80 2 -87 20 -87 15 0 20 7
20 25 0 15 6 25 15 25 8 0 22 -11 31 -25 23 -35 31 -31 37 18 2 23 12 62 22
87 16 44 16 45 -5 62 -30 24 -101 24 -123 0z m93 -36 c0 -1 -5 -17 -11 -35
-16 -46 -49 -43 -49 4 0 32 2 35 30 35 17 0 30 -2 30 -4z"/>
<path d="M3423 2666 c-26 -23 -28 -29 -28 -105 l0 -81 29 0 c27 0 28 2 22 31
l-6 32 37 -7 c21 -3 46 -6 55 -6 10 0 24 -13 33 -30 9 -16 22 -30 30 -30 20 0
20 2 -16 65 -22 39 -29 63 -25 80 5 19 0 32 -18 50 -32 32 -76 33 -113 1z m92
-46 c9 -30 -2 -40 -46 -40 -32 0 -39 3 -39 20 0 38 74 56 85 20z"/>
<path d="M3892 2665 c-24 -20 -30 -35 -35 -77 -4 -44 -2 -57 16 -75 11 -13 25
-23 30 -23 5 0 -1 9 -14 19 -33 26 -19 36 20 14 28 -16 33 -17 58 -3 36 20 39
56 4 52 -64 -9 -92 26 -51 63 14 13 29 16 54 12 43 -7 69 15 37 32 -35 19 -87
13 -119 -14z"/>
<path d="M1332 2668 c-7 -7 -12 -38 -12 -70 l0 -58 53 0 c46 0 57 -4 82 -30
22 -23 38 -30 64 -30 l36 1 -27 20 c-68 50 -74 57 -60 70 20 21 14 39 -13 39
-14 0 -25 -4 -25 -10 0 -5 -16 -10 -35 -10 -30 0 -35 3 -35 24 0 23 2 24 60
19 63 -6 74 2 42 30 -22 20 -112 23 -130 5z"/>
<path d="M1770 2620 c0 -5 6 -10 14 -10 17 0 26 -31 26 -92 0 -41 3 -48 20
-48 18 0 20 7 20 64 l0 65 37 3 c20 2 38 9 41 16 3 9 -17 12 -77 12 -47 0 -81
-4 -81 -10z"/>
<path d="M1712 2514 c-15 -10 -37 -14 -59 -12 -31 4 -33 3 -17 -9 10 -7 24
-13 31 -13 23 0 83 28 83 39 0 15 -12 14 -38 -5z"/>
<path d="M3870 2400 l0 -60 60 0 60 0 0 60 0 60 -60 0 -60 0 0 -60z"/>
<path d="M1316 2418 c28 -163 126 -364 235 -483 67 -73 64 -52 -6 40 -103 135
-175 293 -194 423 -4 33 -11 48 -23 50 -15 3 -17 -2 -12 -30z"/>
<path d="M3760 2408 c0 -72 -48 -227 -105 -343 -96 -194 -232 -337 -400 -420
-110 -55 -97 -60 18 -7 154 72 249 144 333 254 89 115 169 298 194 442 6 33
13 73 16 89 5 25 3 27 -25 27 -30 0 -31 -2 -31 -42z"/>
<path d="M1250 2395 c9 -23 7 -25 -20 -25 -20 0 -30 -5 -30 -15 0 -10 11 -15
35 -15 28 0 35 -4 35 -19 0 -12 -9 -21 -25 -25 -35 -9 -31 -24 7 -28 38 -4 51
-32 18 -41 -28 -7 -25 -25 5 -29 22 -3 32 -18 70 -103 25 -55 70 -136 100
-180 60 -88 161 -205 177 -205 5 0 -22 36 -60 80 -92 103 -145 183 -193 286
-39 83 -82 223 -94 302 -4 26 -12 42 -21 42 -10 0 -11 -6 -4 -25z"/>
<path d="M1660 2409 c0 -3 9 -32 20 -65 26 -75 85 -173 149 -249 56 -65 58
-70 36 -79 -18 -7 -20 -47 -3 -64 17 -17 53 -15 68 3 17 21 22 20 87 -22 94
-60 236 -123 335 -147 111 -28 238 -42 238 -27 0 6 -20 11 -44 11 -60 0 -189
25 -272 54 -84 28 -152 62 -263 129 -129 79 -263 245 -316 392 -16 44 -35 79
-35 64z"/>
<path d="M1815 2390 c14 -47 26 -73 30 -68 3 3 0 20 -6 39 -14 41 -35 67 -24
29z"/>
<path d="M3156 2350 c-45 -77 -96 -137 -163 -196 -53 -45 -54 -46 -75 -28 -21
19 -21 19 -9 -3 6 -12 15 -24 20 -27 21 -13 164 122 215 202 24 39 58 112 52
112 -2 0 -20 -27 -40 -60z"/>
<path d="M3662 2349 c-6 -36 -23 -98 -37 -139 -29 -84 -31 -103 -10 -73 20 29
67 215 63 250 -3 20 -7 9 -16 -38z"/>
<path d="M2967 2228 c-42 -43 -72 -78 -64 -78 18 0 157 129 157 146 0 23 -11
15 -93 -68z"/>
<path d="M1870 2262 c0 -18 58 -88 128 -154 95 -89 118 -104 137 -88 11 9 20
8 45 -10 92 -66 279 -131 370 -129 48 1 47 2 -75 25 -95 18 -207 63 -278 111
-29 20 -53 30 -55 24 -7 -20 -29 -12 -79 27 -61 49 -106 94 -155 155 -21 27
-38 45 -38 39z"/>
<path d="M3327 2248 c-25 -39 -119 -129 -182 -176 -113 -83 -288 -159 -408
-177 l-47 -7 0 -154 c0 -130 2 -154 15 -154 12 0 15 16 15 83 l0 82 98 21 c54
12 133 36 177 55 124 51 324 194 302 215 -4 4 -25 -10 -48 -30 -123 -112 -312
-201 -486 -231 l-43 -7 0 51 c0 47 2 51 28 57 214 46 413 158 550 309 34 39
62 73 62 77 0 16 -18 7 -33 -14z"/>
<path d="M3365 2124 c-25 -37 -44 -68 -42 -71 6 -5 67 67 90 106 33 57 -1 32
-48 -35z"/>
<path d="M3305 1894 c-19 -20 -16 -43 8 -58 34 -22 73 27 47 59 -16 19 -35 19
-55 -1z"/>
<path d="M1680 1884 c-12 -13 -2 -26 63 -92 73 -73 76 -79 60 -95 -16 -16 -15
-18 8 -43 37 -40 191 -140 282 -183 104 -49 224 -87 341 -107 122 -22 390 -15
491 12 73 20 87 34 62 68 -13 18 -17 18 -108 1 -254 -48 -549 -7 -787 109
-127 63 -201 115 -310 220 -88 85 -91 90 -76 108 15 16 15 18 2 18 -9 0 -21
-7 -28 -16z"/>
<path d="M3225 1575 c-22 -14 -79 -39 -128 -56 -94 -34 -114 -53 -25 -24 104
34 246 105 208 105 -8 0 -33 -12 -55 -25z"/>
</g>
</svg>